<mxfile host="app.diagrams.net" modified="2023-11-28T12:08:32.633Z" agent="Mozilla/5.0 (Macintosh; Intel Mac OS X 10_15_7) AppleWebKit/537.36 (KHTML, like Gecko) Chrome/119.0.0.0 Safari/537.36 Edg/119.0.0.0" etag="GE3rquYpfiF0I9qGAcu4" version="22.1.4" type="github">
  <diagram name="第 1 页" id="lSNfHxTfmpqVkPyggSuB">
    <mxGraphModel dx="1258" dy="721" grid="1" gridSize="10" guides="1" tooltips="1" connect="1" arrows="1" fold="1" page="1" pageScale="1" pageWidth="827" pageHeight="1169" math="0" shadow="0">
      <root>
        <mxCell id="0" />
        <mxCell id="1" parent="0" />
      </root>
    </mxGraphModel>
  </diagram>
</mxfile>
